name rise36.2859peak64.2979fall75.1499.mot
datacolumns 19
datarows 35
range 16.94993800000000 17.00660600000000
endheader
time	ground_force1_vx	ground_force1_vy	ground_force1_vz	ground_force1_px	ground_force1_py	ground_force1_pz	ground_force2_vx	ground_force2_vy	ground_force2_vz	ground_force2_px	ground_force2_py	ground_force2_pz	ground_torque1_x	ground_torque1_y	ground_torque1_z	ground_torque2_x	ground_torque2_y	ground_torque2_z	
16.94993800000000	-9.47522400000000	41.29005100000000	-13.19358300000000	0.41979400000000	0.00000000000000	0.08411900000000	-49.69818200000000	779.45292300000006	-49.00229100000000	0.21895400000000	0.00000000000000	-0.09050700000000	0.00000000000000	-11.57792500000000	0.00000000000000	0.00000000000000	-27.80160800000000	0.00000000000000	
16.95160500000000	-10.40051000000000	48.35180800000000	-14.84772300000000	0.41765000000000	0.00000000000000	0.08550400000000	-50.21412600000000	776.75333699999999	-48.60947500000000	0.21779600000000	0.00000000000000	-0.09043700000000	0.00000000000000	-13.01257900000000	0.00000000000000	0.00000000000000	-27.66042800000000	0.00000000000000	
16.95326900000000	-11.15125000000000	55.49258100000000	-16.35562800000000	0.41601400000000	0.00000000000000	0.08675400000000	-50.74669100000000	773.97142199999996	-48.20324300000000	0.21662400000000	0.00000000000000	-0.09036500000000	0.00000000000000	-14.32914800000000	0.00000000000000	0.00000000000000	-27.51940200000000	0.00000000000000	
16.95493200000000	-11.70265700000000	62.62011500000000	-17.68270200000000	0.41480200000000	0.00000000000000	0.08789000000000	-51.29571100000000	771.10522000000003	-47.78350700000000	0.21543700000000	0.00000000000000	-0.09029100000000	0.00000000000000	-15.50030300000000	0.00000000000000	0.00000000000000	-27.37854800000000	0.00000000000000	
16.95660100000000	-12.04047700000000	69.66513600000000	-18.80604400000000	0.41395000000000	0.00000000000000	0.08892700000000	-51.86093400000000	768.15261899999996	-47.35018100000000	0.21423600000000	0.00000000000000	-0.09021500000000	0.00000000000000	-16.50821800000000	0.00000000000000	0.00000000000000	-27.23786800000000	0.00000000000000	
16.95826700000000	-12.16080200000000	76.58344600000000	-19.71460700000000	0.41340300000000	0.00000000000000	0.08987900000000	-52.44201200000000	765.11136199999999	-46.90317500000000	0.21302300000000	0.00000000000000	-0.09013600000000	0.00000000000000	-17.34466700000000	0.00000000000000	0.00000000000000	-27.09734400000000	0.00000000000000	
16.95993900000000	-12.06907300000000	83.35560900000000	-20.40836100000000	0.41311800000000	0.00000000000000	0.09075700000000	-53.03850300000000	761.97904800000003	-46.44240300000000	0.21179900000000	0.00000000000000	-0.09005600000000	0.00000000000000	-18.01033200000000	0.00000000000000	0.00000000000000	-26.95694300000000	0.00000000000000	
16.96160100000000	-11.77848800000000	89.98463599999999	-20.89669600000000	0.41306000000000	0.00000000000000	0.09157200000000	-53.64986700000000	758.75314500000002	-45.96778400000000	0.21056500000000	0.00000000000000	-0.08997300000000	0.00000000000000	-18.51349300000000	0.00000000000000	0.00000000000000	-26.81661600000000	0.00000000000000	
16.96327300000000	-11.30804000000000	96.49222700000000	-21.19632700000000	0.41319600000000	0.00000000000000	0.09232900000000	-54.27546500000000	755.43099099999995	-45.47923800000000	0.20932200000000	0.00000000000000	-0.08988800000000	0.00000000000000	-18.86832500000000	0.00000000000000	0.00000000000000	-26.67629600000000	0.00000000000000	
16.96493400000000	-10.68042100000000	102.91411700000000	-21.32896900000000	0.41350400000000	0.00000000000000	0.09303600000000	-54.91455700000000	752.00980800000002	-44.97669500000000	0.20807100000000	0.00000000000000	-0.08980100000000	0.00000000000000	-19.09299500000000	0.00000000000000	0.00000000000000	-26.53589700000000	0.00000000000000	
16.96659900000000	-9.91998200000000	109.29507900000000	-21.31899800000000	0.41396000000000	0.00000000000000	0.09369800000000	-55.56630000000000	748.48670900000002	-44.46009200000000	0.20681500000000	0.00000000000000	-0.08971100000000	0.00000000000000	-19.20776200000000	0.00000000000000	0.00000000000000	-26.39531800000000	0.00000000000000	
16.96826900000000	-9.05091200000000	115.68403700000000	-21.19131000000000	0.41454800000000	0.00000000000000	0.09431900000000	-56.22975000000000	744.85870999999997	-43.92937600000000	0.20555300000000	0.00000000000000	-0.08961900000000	0.00000000000000	-19.23322300000000	0.00000000000000	0.00000000000000	-26.25443900000000	0.00000000000000	
16.96994000000000	-8.09572700000000	122.12967600000000	-20.96950100000000	0.41525100000000	0.00000000000000	0.09490400000000	-56.90385900000000	741.12274000000002	-43.38450500000000	0.20428800000000	0.00000000000000	-0.08952400000000	0.00000000000000	-19.18882500000000	0.00000000000000	0.00000000000000	-26.11312600000000	0.00000000000000	
16.97160000000000	-7.07415900000000	128.67679100000001	-20.67446100000000	0.41605700000000	0.00000000000000	0.09545600000000	-57.58747600000000	737.27565400000003	-42.82545500000000	0.20302200000000	0.00000000000000	-0.08942600000000	0.00000000000000	-19.09170900000000	0.00000000000000	0.00000000000000	-25.97122600000000	0.00000000000000	
16.97327000000000	-6.00243100000000	135.36354000000000	-20.32341800000000	0.41695300000000	0.00000000000000	0.09597800000000	-58.27934800000000	733.31424400000003	-42.25221300000000	0.20175600000000	0.00000000000000	-0.08932600000000	0.00000000000000	-18.95591700000000	0.00000000000000	0.00000000000000	-25.82856900000000	0.00000000000000	
16.97493400000000	-4.89293600000000	142.21964700000001	-19.92942900000000	0.41793000000000	0.00000000000000	0.09647200000000	-58.97812100000000	729.23525900000004	-41.66478800000000	0.20049100000000	0.00000000000000	-0.08922400000000	0.00000000000000	-18.79197400000000	0.00000000000000	0.00000000000000	-25.68497100000000	0.00000000000000	
16.97660300000000	-3.75424600000000	149.26551599999999	-19.50127200000000	0.41897800000000	0.00000000000000	0.09694100000000	-59.68234100000000	725.03541199999995	-41.06320600000000	0.19922900000000	0.00000000000000	-0.08911800000000	0.00000000000000	-18.60678700000000	0.00000000000000	0.00000000000000	-25.54023200000000	0.00000000000000	
16.97826500000000	-2.59140900000000	156.51216500000001	-19.04367600000000	0.42009000000000	0.00000000000000	0.09738700000000	-60.39045600000000	720.71140100000002	-40.44751700000000	0.19797200000000	0.00000000000000	-0.08901000000000	0.00000000000000	-18.40383500000000	0.00000000000000	0.00000000000000	-25.39413500000000	0.00000000000000	
16.97993400000000	-1.40644700000000	163.96183199999999	-18.55781600000000	0.42126000000000	0.00000000000000	0.09781000000000	-61.10081800000000	716.25992799999995	-39.81779400000000	0.19672300000000	0.00000000000000	-0.08889800000000	0.00000000000000	-18.18357400000000	0.00000000000000	0.00000000000000	-25.24645200000000	0.00000000000000	
16.98159800000000	-0.19898700000000	171.60908200000000	-18.04198000000000	0.42248000000000	0.00000000000000	0.09821400000000	-61.81168800000000	711.67770900000005	-39.17413400000000	0.19548100000000	0.00000000000000	-0.08878300000000	0.00000000000000	-17.94399100000000	0.00000000000000	0.00000000000000	-25.09693700000000	0.00000000000000	
16.98326500000000	1.03304700000000	179.44223900000000	-17.49233100000000	0.42374600000000	0.00000000000000	0.09859800000000	-62.52123700000000	706.96150200000000	-38.51666300000000	0.19425000000000	0.00000000000000	-0.08866600000000	0.00000000000000	-17.68123800000000	0.00000000000000	0.00000000000000	-24.94533400000000	0.00000000000000	
16.98493500000000	2.29274800000000	187.44498800000000	-16.90368700000000	0.42505200000000	0.00000000000000	0.09896400000000	-63.22755100000000	702.10811999999999	-37.84553400000000	0.19303100000000	0.00000000000000	-0.08854500000000	0.00000000000000	-17.39028900000000	0.00000000000000	0.00000000000000	-24.79137300000000	0.00000000000000	
16.98660200000000	3.58358900000000	195.59797499999999	-16.27026300000000	0.42639300000000	0.00000000000000	0.09931400000000	-63.92863600000000	697.11445700000002	-37.16093200000000	0.19182700000000	0.00000000000000	-0.08842000000000	0.00000000000000	-17.06556200000000	0.00000000000000	0.00000000000000	-24.63477400000000	0.00000000000000	
16.98826600000000	4.90888300000000	203.88031500000000	-15.58632400000000	0.42776600000000	0.00000000000000	0.09964700000000	-64.62242100000000	691.97750499999995	-36.46307200000000	0.19063800000000	0.00000000000000	-0.08829200000000	0.00000000000000	-16.70148100000000	0.00000000000000	0.00000000000000	-24.47524300000000	0.00000000000000	
16.98993700000000	6.27135100000000	212.27089599999999	-14.84671100000000	0.42916700000000	0.00000000000000	0.09996600000000	-65.30676500000000	686.69437500000004	-35.75220000000000	0.18946700000000	0.00000000000000	-0.08816100000000	0.00000000000000	-16.29292400000000	0.00000000000000	0.00000000000000	-24.31247900000000	0.00000000000000	
16.99161400000000	7.67281800000000	220.74942700000000	-14.04724500000000	0.43059200000000	0.00000000000000	0.10027000000000	-65.97946200000000	681.26232400000004	-35.02859900000000	0.18831600000000	0.00000000000000	-0.08802600000000	0.00000000000000	-15.83557800000000	0.00000000000000	0.00000000000000	-24.14617100000000	0.00000000000000	
16.99326700000000	9.11403200000000	229.29721599999999	-13.18497900000000	0.43203700000000	0.00000000000000	0.10056000000000	-66.63824600000000	675.67877099999998	-34.29258200000000	0.18718700000000	0.00000000000000	-0.08788600000000	0.00000000000000	-15.32615900000000	0.00000000000000	0.00000000000000	-23.97599900000000	0.00000000000000	
16.99493500000000	10.59458700000000	237.89766200000000	-12.25832500000000	0.43350100000000	0.00000000000000	0.10083700000000	-67.28080000000000	669.94131800000002	-33.54450000000000	0.18608100000000	0.00000000000000	-0.08774300000000	0.00000000000000	-14.76253900000000	0.00000000000000	0.00000000000000	-23.80163900000000	0.00000000000000	
16.99660400000000	12.11296100000000	246.53648400000000	-11.26707000000000	0.43497900000000	0.00000000000000	0.10110200000000	-67.90476000000000	664.04777200000001	-32.78473900000000	0.18500100000000	0.00000000000000	-0.08759600000000	0.00000000000000	-14.14376400000000	0.00000000000000	0.00000000000000	-23.62275800000000	0.00000000000000	
16.99827200000000	13.66660700000000	255.20173800000001	-10.21228900000000	0.43646900000000	0.00000000000000	0.10135400000000	-68.50772300000000	657.99616200000003	-32.01372100000000	0.18394900000000	0.00000000000000	-0.08744500000000	0.00000000000000	-13.46999800000000	0.00000000000000	0.00000000000000	-23.43902000000000	0.00000000000000	
16.99993300000000	15.25211900000000	263.88364799999999	-9.09619700000000	0.43796900000000	0.00000000000000	0.10159400000000	-69.08725600000000	651.78475400000002	-31.23190600000000	0.18292600000000	0.00000000000000	-0.08728900000000	0.00000000000000	-12.74240200000000	0.00000000000000	0.00000000000000	-23.25008700000000	0.00000000000000	
17.00160300000000	16.86541400000000	272.57431100000002	-7.92195100000000	0.43947600000000	0.00000000000000	0.10182400000000	-69.64090200000000	645.41206499999998	-30.43978900000000	0.18193500000000	0.00000000000000	-0.08712900000000	0.00000000000000	-11.96297300000000	0.00000000000000	0.00000000000000	-23.05561800000000	0.00000000000000	
17.00326800000000	18.50193600000000	281.26732700000002	-6.69343700000000	0.44098700000000	0.00000000000000	0.10204200000000	-70.16619000000000	638.87687900000003	-29.63790700000000	0.18097600000000	0.00000000000000	-0.08696400000000	0.00000000000000	-11.13437300000000	0.00000000000000	0.00000000000000	-22.85527300000000	0.00000000000000	
17.00493500000000	20.15685200000000	289.95740000000001	-5.41504800000000	0.44250000000000	0.00000000000000	0.10224900000000	-70.66064200000000	632.17825100000005	-28.82683300000000	0.18005300000000	0.00000000000000	-0.08679400000000	0.00000000000000	-10.25973700000000	0.00000000000000	0.00000000000000	-22.64871600000000	0.00000000000000	
17.00660600000000	21.82522800000000	298.63993799999997	-4.09147900000000	0.44401300000000	0.00000000000000	0.10244600000000	-71.12178500000000	625.31551899999999	-28.00718200000000	0.17916800000000	0.00000000000000	-0.08661900000000	0.00000000000000	-9.34250800000000	0.00000000000000	0.00000000000000	-22.43561200000000	0.00000000000000	
